<?xml version="1.0" encoding="UTF-8" standalone="no"?>
<svg width="18px" height="15px" viewBox="0 0 18 15" version="1.1" xmlns="http://www.w3.org/2000/svg" xmlns:xlink="http://www.w3.org/1999/xlink">
    <!-- Generator: Sketch 3.8.2 (29753) - http://www.bohemiancoding.com/sketch -->
    <title>Slice 1</title>
    <desc>Created with Sketch.</desc>
    <defs></defs>
    <g id="Page-1" stroke="none" stroke-width="1" fill="none" fill-rule="evenodd">
        <path d="M14.9453129,14.5805128 C14.9656244,14.4440197 15.3958213,11.164124 13.4670443,8.90711372 C12.2820733,7.52024673 10.453635,6.76100407 8.09263003,6.68585164 L8.08003692,4.40568631 C8.08003692,4.24888178 7.98944778,4.10629528 7.84807996,4.03886121 C7.70630592,3.97264582 7.5385332,3.9917386 7.41707062,4.09085856 L2.14949466,8.41395129 C2.05524945,8.49113487 2.00040849,8.606504 2.00000226,8.72837281 C1.99959603,8.85024161 2.05403076,8.96561075 2.14827597,9.04279433 L7.41625816,13.4069162 C7.53731451,13.5072549 7.70671215,13.5279726 7.8472675,13.4605385 C7.989854,13.3935107 8.08003692,13.2501117 8.08003692,13.0933072 L8.09263003,10.7619569 C13.783497,10.7578946 14.1881014,14.4042093 14.2019132,14.5549204 C14.2193811,14.7596599 14.3489682,14.9193081 14.5545203,14.9258078 C14.559395,14.926214 14.5638636,14.926214 14.5683321,14.926214 C14.7694156,14.926214 14.9152519,14.7795652 14.9453129,14.5805128 L14.9453129,14.5805128 Z M7.38741588,10.0616175 C7.31104476,10.1379886 7.26798445,10.2411709 7.26798445,10.3492279 L7.26798445,12.2333196 L3.04766775,8.73081019 L7.26798445,5.26079909 L7.26798445,7.08598755 C7.26798445,7.31063238 7.44956897,7.4922169 7.6742138,7.4922169 C9.98565879,7.4922169 11.7515378,8.16168287 12.8475446,9.43236827 C13.6717839,10.3886322 14.0507959,11.5589789 14.180383,12.5302733 C13.2931782,11.3180849 11.7397571,9.94543594 7.67462003,9.94299856 L7.67380757,9.94299856 C7.56656302,9.94299856 7.46338077,9.98565264 7.38741588,10.0616175 L7.38741588,10.0616175 Z" id="Arrow_Left_1_" fill="#121313" transform="translate(8.500000, 9.463107) rotate(-180.000000) translate(-8.500000, -9.463107) "></path>
        <g id="npm">
            <polyline id="Shape" fill="#CB3837" points="0 0 0 6 5 6 5 7 9 7 9 6 18 6 18 0"></polyline>
            <polyline id="Shape" fill="#FFFFFF" points="1 1 1 5 3 5 3 2 4 2 4 5 5 5 5 1 6 1 6 6 8 6 8 2 9 2 9 4 8 4 8 5 10 5 10 1 11 1 11 5 13 5 13 2 14 2 14 5 15 5 15 2 16 2 16 5 17 5 17 1"></polyline>
        </g>
    </g>
</svg>